<svg xmlns="http://www.w3.org/2000/svg" xml:space="preserve" width="655.359" height="655.359" style="shape-rendering:geometricPrecision;text-rendering:geometricPrecision;image-rendering:optimizeQuality;fill-rule:evenodd;clip-rule:evenodd" viewBox="0 0 6.827 6.827"><defs><style>.fil0{fill:none}.fil2{fill:#9333EA}</style></defs><g id="Layer_x0020_1"><g id="_491463032"><path id="_491463320" class="fil0" d="M0 0h6.827v6.827H0z"/><path id="_491463128" class="fil0" d="M.853.853h5.12v5.12H.853z"/></g><g id="_491478824"><path id="_491463224" d="M.909 2.24c.067 1.39 1.968 3.158 3.255 3.57.863.275 2.148-.269 1.64-.777L5 4.23c-.122-.123-.32-.108-.439.01l-.46.462c-.992-.54-1.408-.966-1.953-1.951l.462-.462c.119-.119.132-.317.01-.439l-.803-.803C1.37.598.883 1.715.908 2.24z" style="fill:#ff6e40"/><path id="_491478584" class="fil2" d="m.909 2.24 1.24.51.462-.46c.119-.12.132-.318.01-.44l-.803-.803C1.37.598.883 1.715.908 2.24z"/><path id="_491478176" class="fil2" d="M4.164 5.81c.863.275 2.148-.269 1.64-.777L5 4.23c-.122-.123-.32-.108-.439.01l-.46.462.062 1.107z"/></g></g></svg>