<?xml version="1.0" encoding="utf-8"?>
<!-- Generator: Adobe Illustrator 26.0.3, SVG Export Plug-In . SVG Version: 6.00 Build 0)  -->
<svg version="1.0" id="Layer_1" xmlns="http://www.w3.org/2000/svg" xmlns:xlink="http://www.w3.org/1999/xlink" x="0px" y="0px"
	 viewBox="0 0 838 642" style="enable-background:new 0 0 838 642;" xml:space="preserve">
<style type="text/css">
	.st0{fill-rule:evenodd;clip-rule:evenodd;fill:#1F1A17;}
	.st1{fill-rule:evenodd;clip-rule:evenodd;fill:#CC7521;}
</style>
<g>
	<path class="st0" d="M358.4,208.9c0,0-16.3,0-16.4,0c-13.4,0-14,0.7-16.6,11.6c0,0-27.5,126.1-29.7,136.4
		c-2.5-10.2-33.5-136.1-33.5-136.1c-2.9-11.1-3.6-11.9-17.1-11.9h-27.8c-13.5,0-14,1-17.2,11.8c0,0-32.9,124.1-35.5,133.9
		c-2.1-9.9-28.8-133.9-28.8-133.9c-2.6-10.9-3.2-11.8-16.6-11.8h-17.5c-13.4,0-17.2,0.7-14.2,14.1l46.1,197.4
		c2.8,10.8,3.5,11.7,16.9,11.7h22.8c13.9,0,14.4-1,17.7-12.5c0,0,36.6-137.9,39-147.1c2.4,9.3,38.6,148.9,38.6,148.9
		c3,9.7,3.6,10.7,17,10.7H308c13.8,0,14.4-1.2,17.4-12.9c0,0,47.8-198.9,47.8-199C375.5,209.8,371.5,208.9,358.4,208.9"/>
	<path class="st0" d="M546.9,208.9h-16.2c-13.4,0-14,0.6-14,14.1c0,0,0,120.7,0,129.2c-4.7-7.7-82-133.3-82-133.3
		c-5.9-9.2-7.2-9.9-20.5-9.9h-17.1c-13.3,0-14.2,0.8-14.2,14.1V418c0,13.4,0.8,14.2,14.1,14.2c0.1,0,16.1,0,16.1,0
		c13.8,0,14.3-0.9,14.3-14.2c0,0,0-117.7,0-126.1c4.7,7.6,80.8,130.6,80.8,130.7c6.2,9.5,6.9,9.6,20.2,9.6c0,0,18.5,0,18.6,0
		c13.6,0,14.3-0.6,14.3-14.3V223.1C561.2,209.5,560.5,208.9,546.9,208.9"/>
	<path class="st0" d="M742.5,330.9c-6-9.7-14.3-17.4-24.9-23c-10.4-5.5-26.6-10.9-48.2-16c-21.2-5-34.7-9.9-40-14.4
		c-4-3.4-6-7.4-6-12.1c0-5.2,2.1-9.2,6.4-12.3c7-5.1,16.8-7.7,29.3-7.7c12,0,21.1,2.4,27,7.1c3.9,3.1,6.9,7.5,9,13.2
		c3.5,9.8,3.5,11.5,17,11c0,0,19.1-0.7,19.2-0.7c13.3-0.6,15.1-2.2,12.9-14.2c-2.8-15.2-9.9-27.9-21.3-37.8
		c-14.2-12.4-35.5-18.6-63.3-18.6c-17,0-31.8,2.6-43.9,7.8c-12.2,5.2-21.7,12.9-28.2,22.9s-9.8,20.9-9.8,32.3
		c0,17.8,7,33.1,20.7,45.5c9.7,8.7,26.8,16.2,50.6,22.2c18.3,4.6,30.2,7.8,35.3,9.6c7.3,2.6,12.4,5.6,15.2,9s4.2,7.4,4.2,12.2
		c0,7.6-3.4,14.2-10.3,19.9c-6.9,5.8-17.4,8.7-31.2,8.7c-13,0-23.5-3.3-31-9.8c-5.6-4.8-9.8-11.6-12.7-20.5
		c-2.9-10.5-3.4-11.8-16.9-10.6c-0.1,0-18.2,1.7-18.2,1.7c-13.3,1.2-14.7,2.3-12.4,12.9c0,0,7,30.9,25.7,47.7
		c14.9,13.4,37,19.8,65.1,19.8c19.2,0,35.5-2.8,48.5-8.2c13-5.5,23.3-14,30.4-25.2c7.1-11.3,10.7-23.5,10.7-36.4
		C751.5,352.7,748.5,340.6,742.5,330.9"/>
	<polygon class="st1" points="444.1,432.1 444.1,355.3 493,432.1 	"/>
</g>
</svg>
